#!OML:ASF H:\Dans Jumps\Project 1\Capture day 1\Session 1\subject.ASF
:FULLY-SPECIFIED
:DEGREES
280
root 0.339428 16.7649 -8.20725 -0.147155 2.75132 -1.06958
lowerback 6.13018 0.158014 -1.01367
upperback 4.89226 0.156359 1.91486
thorax 1.59793 0.0231795 2.53329
lowerneck -10.0741 -0.614898 -2.65547
upperneck 34.9443 -0.811259 1.73066
head 13.4624 -0.45921 1.04671
rclavicle 1.35174e-014 1.19271e-015
rhumerus -2.99375 0.0355912 -84.9681
rradius 31.9973
rwrist 27.3262
rhand -22.4319 -21.1423
rfingers 7.12502
rthumb 3.99168 -51.0846
lclavicle 1.35174e-014 1.19271e-015
lhumerus 5.12187 -19.6933 85.6452
lradius 44.5246
lwrist 26.8237
lhand -27.2202 -13.76
lfingers 7.12502
lthumb -0.632784 16.2189
rfemur -24.8696 -4.74343 18.1497
rtibia 45.6565
rfoot -18.177 -0.494234
rtoes 2.33222
lfemur -25.2889 8.20349 -19.228
ltibia 43.397
lfoot -15.012 3.87171
ltoes 0.704745
281
root 0.336494 16.6322 -8.16288 -0.26845 2.70862 -1.2376
lowerback 6.3328 0.214157 -0.910845
upperback 4.93711 0.234569 2.00092
thorax 1.52807 0.0639694 2.56041
lowerneck -10.6641 -0.650539 -2.69906
upperneck 34.9641 -0.855134 1.78517
head 13.6033 -0.474736 1.07047
rclavicle -4.47266e-015 3.18055e-015
rhumerus -3.39337 -0.658253 -84.9118
rradius 31.7328
rwrist 27.8818
rhand -22.634 -21.4108
rfingers 7.12502
rthumb 3.79655 -51.3567
lclavicle -4.47266e-015 3.18055e-015
lhumerus 4.54375 -18.9257 86.2185
lradius 43.7181
lwrist 26.228
lhand -27.5372 -13.7983
lfingers 7.12502
lthumb -0.938927 16.1794
rfemur -25.5695 -4.86115 18.4072
rtibia 47.5103
rfoot -19.5976 -1.24229
rtoes 1.62154
lfemur -26.1879 8.21265 -19.085
ltibia 45.6486
lfoot -16.304 4.91319
ltoes 0.160534
282
root 0.336302 16.5175 -8.12 -0.270967 2.64098 -1.41464
lowerback 6.40235 0.264659 -0.787037
upperback 4.99926 0.306121 2.09758
thorax 1.55039 0.100807 2.5872
lowerneck -11.192 -0.672706 -2.71884
upperneck 34.8946 -0.871575 1.79737
head 13.6902 -0.480523 1.07602
rclavicle -1.09332e-015 1.03368e-014
rhumerus -3.84256 -1.36288 -84.8297
rradius 31.4403
rwrist 28.5029
rhand -22.799 -21.6428
rfingers 7.12502
rthumb 3.63718 -51.5916
lclavicle -1.09332e-015 1.03368e-014
lhumerus 3.87217 -18.0319 86.8255
lradius 42.8105
lwrist 25.6962
lhand -27.9516 -13.8504
lfingers 7.12502
lthumb -1.33916 16.1252
rfemur -26.4263 -4.96686 18.6734
rtibia 49.3374
rfoot -20.6179 -1.86633
rtoes 0.913656
lfemur -27.1578 8.10772 -18.917
ltibia 47.7697
lfoot -17.2899 5.80601
ltoes -0.489559
283
root 0.339043 16.4198 -8.07705 -0.223902 2.556 -1.57296
lowerback 6.39479 0.309204 -0.66257
upperback 5.08156 0.369192 2.19319
thorax 1.6369 0.132769 2.61337
lowerneck -11.6189 -0.680348 -2.7137
upperneck 34.7589 -0.861871 1.77043
head 13.7241 -0.476939 1.0645
rclavicle -3.27995e-015 -7.55382e-015
rhumerus -4.36776 -2.0879 -84.723
rradius 31.092
rwrist 29.1817
rhand -22.915 -21.8164
rfingers 7.12502
rthumb 3.52514 -51.767
lclavicle -3.27995e-015 -7.55382e-015
lhumerus 3.08942 -17.0385 87.4533
lradius 41.7817
lwrist 25.2382
lhand -28.4191 -13.9327
lfingers 7.12502
lthumb -1.79072 16.0396
rfemur -27.3123 -5.05133 18.9012
rtibia 51.0734
rfoot -21.3703 -2.31086
rtoes 0.426259
lfemur -28.0693 7.91511 -18.7489
ltibia 49.6871
lfoot -18.0846 6.53093
ltoes -1.01943
284
root 0.344477 16.3382 -8.0334 -0.206915 2.47132 -1.68329
lowerback 6.39587 0.34311 -0.561654
upperback 5.18251 0.416647 2.27528
thorax 1.73883 0.156318 2.63984
lowerneck -11.9103 -0.674884 -2.6957
upperneck 34.5887 -0.831453 1.71895
head 13.7119 -0.466324 1.04355
rclavicle 9.93923e-017 1.19271e-015
rhumerus -4.998 -2.8193 -84.5908
rradius 30.6731
rwrist 29.8733
rhand -22.9553 -21.9622
rfingers 7.12502
rthumb 3.48625 -51.9135
lclavicle 9.93923e-017 1.19271e-015
lhumerus 2.18507 -15.9821 88.0829
lradius 40.6114
lwrist 24.8606
lhand -28.9696 -14.0346
lfingers 7.12502
lthumb -2.32236 15.9326
rfemur -28.0631 -5.13992 19.0487
rtibia 52.6236
rfoot -21.9742 -2.57048
rtoes 0.171647
lfemur -28.7788 7.67391 -18.6149
ltibia 51.3164
lfoot -18.7747 7.10514
ltoes -1.28721
285
root 0.351939 16.2731 -7.98879 -0.282593 2.38392 -1.72674
lowerback 6.47537 0.36905 -0.501196
upperback 5.30245 0.451952 2.33105
thorax 1.81765 0.17321 2.66228
lowerneck -12.0757 -0.657886 -2.65902
upperneck 34.4259 -0.788475 1.6544
head 13.6745 -0.450096 1.01605
rclavicle 1.25234e-014 2.82274e-014
rhumerus -5.73933 -3.54281 -84.4378
rradius 30.1653
rwrist 30.5331
rhand -22.9222 -22.085
rfingers 7.12502
rthumb 3.51822 -52.0357
lclavicle 1.25234e-014 2.82274e-014
lhumerus 1.15793 -14.8898 88.6817
lradius 39.2946
lwrist 24.5493
lhand -29.5262 -14.1217
lfingers 7.12502
lthumb -2.85993 15.8388
rfemur -28.5328 -5.2365 19.0898
rtibia 53.8902
rfoot -22.5342 -2.67316
rtoes 0.161438
lfemur -29.1686 7.43879 -18.5453
ltibia 52.5828
lfoot -19.3898 7.6141
ltoes -1.43589
286
root 0.360581 16.2257 -7.94403 -0.444626 2.28261 -1.70428
lowerback 6.65095 0.391452 -0.481102
upperback 5.42269 0.48168 2.35326
thorax 1.84387 0.187167 2.67243
lowerneck -12.1335 -0.633549 -2.60631
upperneck 34.3094 -0.743668 1.59252
head 13.6338 -0.431296 0.987569
rclavicle 4.47266e-015 2.78299e-015
rhumerus -6.59537 -4.24763 -84.2674
rradius 29.5641
rwrist 31.1377
rhand -22.8003 -22.1874
rfingers 7.12502
rthumb 3.63593 -52.1361
lclavicle 4.47266e-015 2.78299e-015
lhumerus 0.0141746 -13.7692 89.2245
lradius 37.8234
lwrist 24.2486
lhand -30.0452 -14.1749
lfingers 7.12502
lthumb -3.36112 15.7783
rfemur -28.6841 -5.33563 19.0366
rtibia 54.7978
rfoot -23.0742 -2.72312
rtoes 0.101691
lfemur -29.2257 7.26833 -18.5507
ltibia 53.4471
lfoot -19.9122 8.10186
ltoes -1.61632
287
root 0.369615 16.1973 -7.90007 -0.635661 2.16525 -1.6181
lowerback 6.88266 0.41275 -0.501699
upperback 5.52521 0.509026 2.336
thorax 1.82082 0.199945 2.66417
lowerneck -12.1324 -0.605031 -2.53676
upperneck 34.2699 -0.706178 1.54934
head 13.6145 -0.411678 0.963244
rclavicle 2.78299e-015 1.03368e-014
rhumerus -7.54365 -4.93777 -84.0872
rradius 28.87
rwrist 31.6846
rhand -22.564 -22.3065
rfingers 7.12502
rthumb 3.8641 -52.2512
lclavicle 2.78299e-015 1.03368e-014
lhumerus -1.21171 -12.6284 89.6795
lradius 36.194
lwrist 23.9036
lhand -30.4939 -14.0725
lfingers 7.12502
lthumb -3.79443 15.8735
rfemur -28.5727 -5.42978 18.8989
rtibia 55.3246
rfoot -23.5733 -2.72608
rtoes 0.0313237
lfemur -29.0332 7.16734 -18.6361
ltibia 53.9188
lfoot -20.2953 8.57516
ltoes -1.85153
288
root 0.378115 16.1867 -7.85754 -0.783123 2.03168 -1.49407
lowerback 7.10739 0.433294 -0.5454
upperback 5.59479 0.534754 2.28522
thorax 1.76763 0.21229 2.63394
lowerneck -12.1289 -0.573978 -2.44943
upperneck 34.3308 -0.678776 1.52942
head 13.6393 -0.391663 0.944494
rclavicle -2.78299e-015 -1.78906e-014
rhumerus -8.55725 -5.64933 -83.9005
rradius 28.0914
rwrist 32.2347
rhand -22.1806 -22.419
rfingers 7.12502
rthumb 4.23436 -52.3567
lclavicle -2.78299e-015 -1.78906e-014
lhumerus -2.48394 -11.4355 90.0337
lradius 34.4087
lwrist 23.4217
lhand -30.8134 -13.767
lfingers 7.12502
lthumb -4.10291 16.1732
rfemur -28.3198 -5.49918 18.7229
rtibia 55.5042
rfoot -23.982 -2.74186
rtoes -0.174388
lfemur -28.7167 7.12819 -18.7759
ltibia 54.0559
lfoot -20.5235 9.02675
ltoes -2.16807
289
root 0.385438 16.1904 -7.81659 -0.823969 1.88267 -1.3533
lowerback 7.256 0.45293 -0.600529
upperback 5.62531 0.558682 2.20947
thorax 1.71615 0.224099 2.58445
lowerneck -12.1427 -0.543698 -2.35011
upperneck 34.4706 -0.664128 1.53249
head 13.7033 -0.372987 0.931634
rclavicle -4.96962e-016 -5.1684e-015
rhumerus -9.60784 -6.43062 -83.7037
rradius 27.2405
rwrist 32.8507
rhand -21.6219 -22.4973
rfingers 7.12502
rthumb 4.77389 -52.4235
lclavicle -4.96962e-016 -5.1684e-015
lhumerus -3.77412 -10.1304 90.2867
lradius 32.4805
lwrist 22.6967
lhand -30.9468 -13.2093
lfingers 7.12502
lthumb -4.23173 16.7284
rfemur -28.0488 -5.523 18.5423
rtibia 55.4151
rfoot -24.2799 -2.77399
rtoes -0.41534
lfemur -28.3972 7.12201 -18.9426
ltibia 53.9468
lfoot -20.6304 9.41681
ltoes -2.46436
290
root 0.391339 16.2047 -7.77717 -0.723315 1.72928 -1.22278
lowerback 7.28487 0.463871 -0.655603
upperback 5.61714 0.570831 2.12769
thorax 1.69122 0.230172 2.52983
lowerneck -12.1773 -0.514531 -2.25243
upperneck 34.6476 -0.656093 1.55019
head 13.7891 -0.355628 0.924289
rclavicle -7.65321e-015 -1.35174e-014
rhumerus -10.6835 -7.29743 -83.4799
rradius 26.3523
rwrist 33.5839
rhand -20.8858 -22.5316
rfingers 7.12502
rthumb 5.4846 -52.4406
lclavicle -7.65321e-015 -1.35174e-014
lhumerus -5.06712 -8.6396 90.44
lradius 30.4446
lwrist 21.6492
lhand -30.8849 -12.3499
lfingers 7.12502
lthumb -4.17196 17.589
rfemur -27.8517 -5.49147 18.3936
rtibia 55.1474
rfoot -24.4656 -2.83336
rtoes -0.649301
lfemur -28.1621 7.11083 -19.1024
ltibia 53.6801
lfoot -20.6664 9.71598
ltoes -2.64088
